<svg version="1.1" id="Capa_1" xmlns="http://www.w3.org/2000/svg" xmlns:xlink="http://www.w3.org/1999/xlink" x="0px" y="0px" viewBox="0 0 297 297" style="enable-background: new 0 0 297 297" xml:space="preserve" width="50" height="50">
    <g>
        <g>
            <g>
                <path style="fill: #c3a99a" d="M16.5,288.75L16.5,288.75c-9.113,0-16.5-7.387-16.5-16.5V24.75c0-9.113,7.387-16.5,16.5-16.5h0
				c9.113,0,16.5,7.387,16.5,16.5v247.5C33,281.363,25.613,288.75,16.5,288.75z" />
            </g>
        </g>
        <g style="opacity: 0.6">
            <path style="fill: #bdc3c7" d="M16.5,8.25c-3.009,0-5.821,0.818-8.25,2.225c4.927,2.854,8.25,8.171,8.25,14.275v247.5
			c0,6.104-3.323,11.42-8.25,14.275c2.429,1.407,5.241,2.225,8.25,2.225c9.113,0,16.5-7.387,16.5-16.5V24.75
			C33,15.637,25.613,8.25,16.5,8.25z" />
        </g>
        <g>
            <g>
                <path style="fill: #c3a99a" d="M280.5,288.75L280.5,288.75c-9.113,0-16.5-7.387-16.5-16.5V24.75c0-9.113,7.387-16.5,16.5-16.5h0
				c9.113,0,16.5,7.387,16.5,16.5v247.5C297,281.363,289.613,288.75,280.5,288.75z" />
            </g>
        </g>
        <g style="opacity: 0.6">
            <path style="fill: #bdc3c7" d="M280.5,8.25c-3.009,0-5.821,0.818-8.25,2.225c4.927,2.854,8.25,8.171,8.25,14.275v247.5
			c0,6.104-3.323,11.42-8.25,14.275c2.429,1.407,5.241,2.225,8.25,2.225c9.113,0,16.5-7.387,16.5-16.5V24.75
			C297,15.637,289.613,8.25,280.5,8.25z" />
        </g>

        <!-- bars -->
        <g>
            <g>
                <rect x="33" y="57.75" style="fill: #998272" width="231" height="16.5" />
            </g>
        </g>
        <g>
            <g>
                <rect x="33" y="107.25" style="fill: #998272" width="231" height="16.5" />
            </g>
        </g>
        <g>
            <g>
                <rect x="33" y="156.75" style="fill: #998272" width="231" height="16.5" />
            </g>
        </g>
        <g>
            <g>
                <rect x="33" y="206.25" style="fill: #998272" width="231" height="16.5" />
            </g>
        </g>
        <!-- end of bars -->

        <!-- beads -->
        <g class="beads-1">
            <g class="bar-1 bead-1">
                <g>
                    <path style="fill: #17ab93" d="M82.5,90.75L82.5,90.75c-9.113,0-16.5-7.387-16.5-16.5v-16.5c0-9.113,7.387-16.5,16.5-16.5h0
                      c9.113,0,16.5,7.387,16.5,16.5v16.5C99,83.363,91.613,90.75,82.5,90.75z" />
                </g>
            </g>
            <g class="bar-1 bead-2">
                <g>
                    <path style="fill: #f5db91" d="M132,90.75L132,90.75c-9.113,0-16.5-7.387-16.5-16.5v-16.5c0-9.113,7.387-16.5,16.5-16.5h0
                      c9.113,0,16.5,7.387,16.5,16.5v16.5C148.5,83.363,141.113,90.75,132,90.75z" />
                </g>
            </g>
            <g class="bar-1 bead-3">
                <g>
                    <path style="fill: #9adad9" d="M181.5,90.75L181.5,90.75c-9.113,0-16.5-7.387-16.5-16.5v-16.5c0-9.113,7.387-16.5,16.5-16.5h0
                      c9.113,0,16.5,7.387,16.5,16.5v16.5C198,83.363,190.613,90.75,181.5,90.75z" />
                </g>
            </g>
        </g>
        <g class="beads-2">
            <g class="bar-2 bead-1">
                <g>
                    <path style="fill: #17ab93" d="M231,140.25L231,140.25c-9.113,0-16.5-7.387-16.5-16.5v-16.5c0-9.113,7.387-16.5,16.5-16.5h0
                    c9.113,0,16.5,7.387,16.5,16.5v16.5C247.5,132.863,240.113,140.25,231,140.25z" />
                </g>
            </g>
        </g>
        <g class="beads-3">
            <g class="bar-3 bead-1">
                <g>
                    <path style="fill: #17ab93" d="M99,189.75L99,189.75c-9.113,0-16.5-7.387-16.5-16.5v-16.5c0-9.113,7.387-16.5,16.5-16.5h0
                      c9.113,0,16.5,7.387,16.5,16.5v16.5C115.5,182.363,108.113,189.75,99,189.75z" />
                </g>
            </g>
            <g class="bar-3 bead-2">
                <g>
                    <path style="fill: #9adad9" d="M148.5,189.75L148.5,189.75c-9.113,0-16.5-7.387-16.5-16.5v-16.5c0-9.113,7.387-16.5,16.5-16.5h0
                      c9.113,0,16.5,7.387,16.5,16.5v16.5C165,182.363,157.613,189.75,148.5,189.75z" />
                </g>
            </g>
        </g>
        <g class="bar-4 beads-4">
            <g class="bar-4 bead-1">
                <g>
                    <path style="fill: #f5db91" d="M198,239.25L198,239.25c-9.113,0-16.5-7.387-16.5-16.5v-16.5c0-9.113,7.387-16.5,16.5-16.5h0
                          c9.113,0,16.5,7.387,16.5,16.5v16.5C214.5,231.863,207.113,239.25,198,239.25z" />
                </g>
            </g>
        </g>
    </g>
</svg>